<?xml version="1.0" standalone="no"?>
<!DOCTYPE svg PUBLIC "-//W3C//DTD SVG 20010904//EN"
 "http://www.w3.org/TR/2001/REC-SVG-20010904/DTD/svg10.dtd">
<svg version="1.0" xmlns="http://www.w3.org/2000/svg"
 width="756.000000pt" height="756.000000pt" viewBox="0 0 756.000000 756.000000"
 preserveAspectRatio="xMidYMid meet">
<metadata>
Created by potrace 1.11, written by Peter Selinger 2001-2013
</metadata>
<g transform="translate(0.000000,756.000000) scale(0.100000,-0.100000)"
fill="#000000" stroke="none">
<path d="M3687 6765 c-92 -32 -173 -116 -198 -203 -9 -31 -12 -161 -12 -450 1
-449 1 -453 64 -536 133 -173 414 -147 514 49 l30 59 0 430 c-1 429 -1 431
-24 483 -26 59 -103 136 -159 160 -49 21 -167 25 -215 8z"/>
<path d="M1254 5755 c-154 -35 -242 -157 -232 -319 8 -118 25 -140 345 -453
157 -153 303 -289 326 -303 37 -22 53 -25 137 -25 111 0 151 15 216 82 56 57
76 105 82 190 8 121 -10 154 -169 318 -404 414 -455 464 -505 488 -60 30 -130
38 -200 22z"/>
<path d="M6170 5756 c-26 -7 -62 -22 -82 -34 -28 -17 -313 -304 -570 -572 -51
-54 -72 -114 -71 -205 0 -92 23 -153 79 -210 56 -58 109 -79 194 -80 95 0 161
29 242 106 354 339 518 506 544 552 26 47 29 62 29 142 0 74 -4 98 -23 137
-63 128 -209 198 -342 164z"/>
<path d="M3566 4698 c-346 -43 -679 -182 -941 -393 -72 -57 -235 -220 -292
-290 -194 -240 -326 -523 -373 -795 -6 -36 -13 -76 -16 -90 -2 -14 -7 -80 -11
-147 l-6 -121 27 -27 26 -26 249 3 c248 3 250 3 275 27 26 25 31 41 41 146 22
223 90 402 224 589 93 130 284 300 421 375 58 31 182 80 251 99 127 35 197 44
344 44 211 1 370 -32 542 -113 213 -101 409 -276 535 -479 102 -163 152 -311
174 -515 12 -113 14 -120 44 -147 l30 -28 239 0 c228 0 240 1 265 21 26 21 27
25 25 108 -4 162 -30 321 -80 486 -118 385 -390 737 -762 988 -154 104 -410
212 -601 253 -183 40 -457 54 -630 32z"/>
<path d="M226 3292 c-141 -36 -235 -167 -222 -312 7 -82 34 -138 95 -198 87
-85 94 -86 560 -87 355 0 410 2 460 17 166 51 246 262 163 430 -32 65 -93 123
-157 149 -45 18 -829 19 -899 1z"/>
<path d="M6466 3294 c-151 -39 -243 -198 -210 -361 19 -96 73 -166 159 -211
l50 -26 409 0 c446 -1 475 1 551 54 121 83 167 247 105 375 -28 59 -97 124
-160 153 l-55 26 -401 1 c-282 0 -415 -3 -448 -11z"/>
<path d="M1302 2409 c-58 -11 -139 -57 -168 -94 -95 -125 -70 -337 50 -423 90
-65 40 -63 1242 -60 1086 3 1089 3 1134 24 103 48 159 138 165 262 7 129 -42
214 -155 270 l-55 27 -1085 1 c-597 1 -1104 -2 -1128 -7z"/>
<path d="M4204 2410 c-88 -20 -184 -93 -220 -167 -22 -46 -24 -138 -5 -204 18
-64 88 -141 159 -176 48 -24 69 -28 137 -28 94 1 146 21 216 83 62 56 92 125
93 217 1 83 -16 123 -76 183 -76 77 -203 115 -304 92z"/>
<path d="M5064 2410 c-84 -19 -177 -89 -216 -163 -33 -62 -30 -168 6 -242 33
-67 101 -128 172 -154 51 -20 78 -20 641 -21 677 0 666 -2 743 79 59 60 84
130 83 231 0 90 -29 156 -92 213 -73 66 -76 66 -726 65 -319 0 -594 -4 -611
-8z"/>
<path d="M1685 1395 c-92 -21 -190 -101 -231 -190 -48 -103 -24 -242 57 -324
66 -67 126 -94 220 -97 140 -5 234 45 286 154 24 49 28 69 27 147 0 110 -21
164 -93 235 -70 70 -169 97 -266 75z"/>
<path d="M2553 1399 c-147 -18 -250 -132 -260 -288 -10 -144 47 -251 159 -302
l53 -24 755 -3 c707 -2 758 -1 802 16 137 52 211 156 210 293 -1 125 -110 265
-233 300 -33 9 -219 12 -739 13 -382 1 -718 -2 -747 -5z"/>
<path d="M4749 1393 c-148 -30 -240 -154 -236 -319 4 -133 59 -218 177 -269
42 -19 70 -20 470 -20 412 0 426 1 470 21 108 51 161 143 162 283 2 147 -97
277 -232 307 -59 12 -746 10 -811 -3z"/>
</g>
</svg>
